<?xml version="1.0" encoding="utf-8"?>
<!-- Generator: Adobe Illustrator 28.0.0, SVG Export Plug-In . SVG Version: 6.00 Build 0)  -->
<svg version="1.1" id="Camada_1" xmlns="http://www.w3.org/2000/svg" xmlns:xlink="http://www.w3.org/1999/xlink" x="0px" y="0px"
	 viewBox="0 0 260.5 61.5" style="enable-background:new 0 0 260.5 61.5;" xml:space="preserve">
<style type="text/css">
	.st0{fill:url(#SVGID_1_);}
	.st1{fill:#3B700A;}
	.st2{fill:#FFFFFF;}
	.st3{fill:#3B700A;stroke:#3B700A;stroke-miterlimit:10;}
</style>
<linearGradient id="SVGID_1_" gradientUnits="userSpaceOnUse" x1="130.4555" y1="0.669" x2="130.4555" y2="60.5">
	<stop  offset="0" style="stop-color:#60BA0F"/>
	<stop  offset="1" style="stop-color:#4A8C0D"/>
</linearGradient>
<path class="st0" d="M251.1,60.5H9.9c-5.2,0-9.4-4.2-9.4-9.4V10.1c0-5.2,4.2-9.4,9.4-9.4h241.2c5.2,0,9.4,4.2,9.4,9.4v40.9
	C260.5,56.3,256.3,60.5,251.1,60.5z"/>
<g>
	<g>
		<g>
			<g>
				<path class="st1" d="M229.6,32.8c-0.5,0.5-1,1-1.5,1.5c-1.8,1.8-3.6,3.6-5.4,5.4c-0.4,0.4-0.9,0.9-1.3,1.3
					c-0.3,0.3-0.7,0.6-1.1,0.7c-1,0.2-2-0.5-2.2-1.6c-0.1-0.6,0.1-1.1,0.5-1.5c0.6-0.7,1.3-1.3,1.9-2c2.4-2.4,4.9-4.9,7.4-7.4
					c0.6-0.6,1.1-1.1,1.7-1.7c0.1-0.1,0.1-0.1,0.2,0c0.6,0.6,1.2,1.2,1.8,1.8c0.7,0.7,1.4,1.4,2.1,2.1c0.8,0.8,1.6,1.6,2.4,2.4
					c1.5,1.5,3,3,4.5,4.5c0.3,0.3,0.6,0.7,0.7,1.1c0.2,0.9-0.3,1.7-1.1,2.1c-0.7,0.3-1.4,0.2-2-0.3c-0.5-0.4-0.9-0.9-1.3-1.3
					c-1.6-1.6-3.2-3.2-4.9-4.9C231.1,34.3,230.4,33.5,229.6,32.8C229.7,32.8,229.6,32.8,229.6,32.8z"/>
				<path class="st1" d="M239.4,42.9c-0.7,0-1.3-0.2-1.8-0.7c-0.4-0.3-0.7-0.7-1-1c-0.1-0.1-0.2-0.3-0.4-0.4l-4.9-4.9
					c-0.3-0.3-0.5-0.5-0.8-0.8s-0.5-0.5-0.8-0.8l-7.6,7.6c-0.3,0.3-0.9,0.8-1.6,1c-0.8,0.2-1.5,0-2.2-0.4c-0.7-0.5-1.1-1.2-1.3-2
					c-0.1-0.9,0.1-1.7,0.8-2.4c0.3-0.3,0.6-0.7,1-1c0.3-0.3,0.6-0.6,0.9-0.9l9.2-9.2c0.1-0.1,0.4-0.4,0.8-0.4c0.4,0,0.7,0.3,0.8,0.4
					l10.9,10.9c0.3,0.3,0.8,0.9,1,1.6c0.3,1.3-0.4,2.6-1.6,3.2C240.2,42.8,239.8,42.9,239.4,42.9z M230.3,32c0.6,0.5,1.1,1,1.6,1.6
					c0.2,0.3,0.5,0.5,0.8,0.8l4.9,4.9c0.1,0.1,0.3,0.3,0.4,0.4c0.3,0.3,0.5,0.6,0.8,0.8c0.3,0.3,0.6,0.3,1,0.2
					c0.1-0.1,0.6-0.4,0.5-1c0-0.1-0.2-0.3-0.4-0.6l-10.3-10.3l-8.5,8.5c-0.3,0.3-0.6,0.7-0.9,1s-0.6,0.6-0.9,0.9
					c-0.2,0.3-0.3,0.4-0.3,0.7c0,0.3,0.2,0.5,0.4,0.7c0.2,0.1,0.4,0.2,0.6,0.1c0.1,0,0.3-0.2,0.6-0.4l7.5-7.5l-1.2-1h2.7v0.9
					L230.3,32z"/>
			</g>
		</g>
		<g>
			<g>
				<path class="st1" d="M229.6,19.3c0.5,0.5,1,1,1.5,1.5c1.8,1.8,3.7,3.7,5.5,5.5c1.3,1.3,2.6,2.6,3.9,3.9c0.3,0.3,0.5,0.6,0.6,1
					c0.2,0.9-0.2,1.7-1.1,2.1c-0.7,0.3-1.4,0.2-2-0.3c-0.7-0.6-1.3-1.3-2-1.9c-2.1-2.1-4.2-4.2-6.3-6.3c-0.1-0.1-0.1-0.1-0.2-0.2
					c-0.1,0.1-0.3,0.2-0.4,0.4c-2.6,2.6-5.3,5.2-8,8c-0.5,0.5-1,0.7-1.6,0.7c-0.9-0.1-1.6-0.9-1.7-1.8c0-0.6,0.2-1.1,0.6-1.5
					c0.9-0.9,1.8-1.8,2.7-2.7c1.5-1.5,3-3,4.5-4.5c1.2-1.2,2.4-2.3,3.5-3.5C229.5,19.4,229.6,19.3,229.6,19.3z"/>
				<path class="st1" d="M219.5,34.7h-0.1c-1.3-0.1-2.4-1.3-2.6-2.7v-0.1c0-0.9,0.3-1.6,0.9-2.2l7.3-7.3c0.4-0.4,0.8-0.8,1.2-1.2
					c0.8-0.8,1.5-1.5,2.2-2.3l0.2-0.2c0.2-0.1,0.2-0.2,0.3-0.2l0.7-0.6l0.7,0.6l11,11c0.5,0.5,0.7,0.9,0.9,1.5
					c0.3,1.4-0.3,2.7-1.7,3.3c-1.1,0.5-2.2,0.3-3-0.4c-0.4-0.3-0.7-0.7-1.1-1c-0.3-0.3-0.6-0.6-0.9-0.9l-5.8-5.8
					c-0.8,0.8-1.5,1.5-2.3,2.3c-1.7,1.7-3.5,3.5-5.3,5.3C221.1,34.4,220.4,34.7,219.5,34.7z M218.8,31.8c0.1,0.4,0.4,0.8,0.8,0.9
					c0.3,0,0.5-0.1,0.8-0.4c1.7-1.8,3.5-3.6,5.3-5.3c0.9-0.8,1.7-1.7,2.5-2.5c0.2-0.2,0.4-0.4,0.5-0.5l0.7-0.7l3,3l4.2,4.2
					c0.3,0.3,0.7,0.6,1,0.9s0.6,0.6,0.9,0.9c0.3,0.2,0.6,0.3,1,0.1c0.4-0.2,0.6-0.5,0.5-1c0-0.1-0.1-0.3-0.3-0.5l-10.3-10.3
					c-0.6,0.7-1.3,1.3-1.9,1.9c-0.4,0.4-0.8,0.8-1.2,1.2l-7.3,7.3C218.9,31.3,218.8,31.5,218.8,31.8z"/>
			</g>
		</g>
	</g>
	<g>
		<g>
			<path class="st2" d="M229.6,31.8c-0.5,0.5-1,1-1.5,1.5c-1.8,1.8-3.6,3.6-5.4,5.4c-0.4,0.4-0.9,0.9-1.3,1.3
				c-0.3,0.3-0.7,0.6-1.1,0.7c-1,0.2-2-0.5-2.2-1.6c-0.1-0.6,0.1-1.1,0.5-1.5c0.6-0.7,1.3-1.3,1.9-2c2.4-2.4,4.9-4.9,7.4-7.4
				c0.6-0.6,1.1-1.1,1.7-1.7c0.1-0.1,0.1-0.1,0.2,0c0.6,0.6,1.2,1.2,1.8,1.8c0.7,0.7,1.4,1.4,2.1,2.1c0.8,0.8,1.6,1.6,2.4,2.4
				c1.5,1.5,3,3,4.5,4.5c0.3,0.3,0.6,0.7,0.7,1.1c0.2,0.9-0.3,1.7-1.1,2.1c-0.7,0.3-1.4,0.2-2-0.3c-0.5-0.4-0.9-0.9-1.3-1.3
				c-1.6-1.6-3.2-3.2-4.9-4.9C231.1,33.3,230.4,32.5,229.6,31.8C229.7,31.8,229.6,31.8,229.6,31.8z"/>
		</g>
		<g>
			<path class="st2" d="M229.6,18.3c0.5,0.5,1,1,1.5,1.5c1.8,1.8,3.7,3.7,5.5,5.5c1.3,1.3,2.6,2.6,3.9,3.9c0.3,0.3,0.5,0.6,0.6,1
				c0.2,0.9-0.2,1.7-1.1,2.1c-0.7,0.3-1.4,0.2-2-0.3c-0.7-0.6-1.3-1.3-2-1.9c-2.1-2.1-4.2-4.2-6.3-6.3c-0.1-0.1-0.1-0.1-0.2-0.2
				c-0.1,0.1-0.3,0.2-0.4,0.4c-2.6,2.6-5.3,5.2-8,8c-0.5,0.5-1,0.7-1.6,0.7c-0.9-0.1-1.6-0.9-1.7-1.8c0-0.6,0.2-1.1,0.6-1.5
				c0.9-0.9,1.8-1.8,2.7-2.7c1.5-1.5,3-3,4.5-4.5c1.2-1.2,2.4-2.3,3.5-3.5C229.5,18.4,229.6,18.3,229.6,18.3z"/>
		</g>
	</g>
</g>
<g>
	<g>
		<path class="st3" d="M29.6,35.4c0-0.6-0.2-1.1-0.7-1.5c-0.5-0.4-1.2-0.7-2.4-1.1c-1.1-0.4-2.1-0.8-2.8-1.1
			c-2.3-1.2-3.5-2.7-3.5-4.8c0-1,0.3-1.9,0.9-2.7c0.6-0.8,1.4-1.4,2.5-1.8c1.1-0.4,2.3-0.6,3.6-0.6c1.3,0,2.5,0.2,3.5,0.7
			c1,0.5,1.8,1.1,2.4,2s0.9,1.8,0.9,2.9h-4.4c0-0.7-0.2-1.3-0.7-1.7c-0.5-0.4-1.1-0.6-1.8-0.6c-0.8,0-1.4,0.2-1.8,0.5
			c-0.5,0.3-0.7,0.8-0.7,1.3c0,0.5,0.2,0.9,0.7,1.3c0.5,0.4,1.4,0.8,2.6,1.2c1.3,0.4,2.3,0.8,3.1,1.3c2,1.1,2.9,2.7,2.9,4.7
			c0,1.6-0.6,2.8-1.8,3.7c-1.2,0.9-2.8,1.4-4.9,1.4c-1.5,0-2.8-0.3-4-0.8c-1.2-0.5-2.1-1.2-2.7-2.2c-0.6-0.9-0.9-2-0.9-3.2h4.4
			c0,1,0.3,1.7,0.8,2.1c0.5,0.5,1.3,0.7,2.4,0.7c0.7,0,1.3-0.2,1.7-0.5C29.4,36.4,29.6,36,29.6,35.4z"/>
		<path class="st3" d="M39.8,34.1v6.1h-4.4V22.1h7.2c1.4,0,2.6,0.3,3.7,0.8c1.1,0.5,1.9,1.2,2.5,2.2c0.6,0.9,0.9,2,0.9,3.2
			c0,1.8-0.6,3.2-1.9,4.2c-1.3,1.1-3,1.6-5.2,1.6H39.8z M39.8,30.7h2.9c0.8,0,1.5-0.2,1.9-0.6c0.4-0.4,0.7-1,0.7-1.8
			c0-0.8-0.2-1.5-0.7-2c-0.5-0.5-1.1-0.8-1.9-0.8h-2.9V30.7z"/>
		<path class="st3" d="M55.9,40.2h-4.4V22.1h4.4V40.2z"/>
		<path class="st3" d="M73.3,40.2H69l-6.4-11.3v11.3h-4.4V22.1h4.4L69,33.4V22.1h4.4V40.2z"/>
		<path class="st3" d="M94.4,25.5H89v14.7h-4.4V25.5h-5.3v-3.4h15.1V25.5z"/>
		<path class="st3" d="M110.6,40.2h-4.3v-7.6h-6.4v7.6h-4.4V22.1h4.4v7.2h6.4v-7.2h4.3V40.2z"/>
		<path class="st3" d="M123.9,32.5H117v4.3h8.1v3.4h-12.5V22.1h12.5v3.4H117v3.8h6.9V32.5z"/>
		<path class="st3" d="M145.8,33.5l2.1-11.4h4.3l-3.8,18.1h-4.5l-2.4-10.3L139,40.2h-4.5l-3.9-18.1h4.3l2.1,11.4l2.5-11.4h3.7
			L145.8,33.5z"/>
		<path class="st3" d="M168.3,40.2h-4.3v-7.6h-6.4v7.6h-4.4V22.1h4.4v7.2h6.4v-7.2h4.3V40.2z"/>
		<path class="st3" d="M181.5,32.5h-6.9v4.3h8.1v3.4h-12.5V22.1h12.5v3.4h-8.1v3.8h6.9V32.5z"/>
		<path class="st3" d="M195,32.5h-6.9v4.3h8.1v3.4h-12.5V22.1h12.5v3.4h-8.1v3.8h6.9V32.5z"/>
		<path class="st3" d="M201.6,36.9h7.6v3.4h-12V22.1h4.4V36.9z"/>
	</g>
	<g>
		<path class="st2" d="M28.5,33.9c0-0.6-0.2-1.1-0.7-1.5c-0.5-0.4-1.2-0.7-2.4-1.1c-1.1-0.4-2.1-0.8-2.8-1.1
			c-2.3-1.2-3.5-2.7-3.5-4.8c0-1,0.3-1.9,0.9-2.7s1.4-1.4,2.5-1.8c1.1-0.4,2.3-0.6,3.6-0.6c1.3,0,2.5,0.2,3.5,0.7
			c1,0.5,1.8,1.1,2.4,2c0.6,0.9,0.9,1.8,0.9,2.9h-4.4c0-0.7-0.2-1.3-0.7-1.7c-0.5-0.4-1.1-0.6-1.8-0.6c-0.8,0-1.4,0.2-1.8,0.5
			c-0.5,0.3-0.7,0.8-0.7,1.3c0,0.5,0.2,0.9,0.7,1.3c0.5,0.4,1.4,0.8,2.6,1.2c1.3,0.4,2.3,0.8,3.1,1.3c2,1.1,2.9,2.7,2.9,4.7
			c0,1.6-0.6,2.8-1.8,3.7c-1.2,0.9-2.8,1.4-4.9,1.4c-1.5,0-2.8-0.3-4-0.8c-1.2-0.5-2.1-1.2-2.7-2.2c-0.6-0.9-0.9-2-0.9-3.2h4.4
			c0,1,0.3,1.7,0.8,2.1c0.5,0.5,1.3,0.7,2.4,0.7c0.7,0,1.3-0.2,1.7-0.5C28.3,34.9,28.5,34.5,28.5,33.9z"/>
		<path class="st2" d="M38.7,32.6v6.1h-4.4V20.6h7.2c1.4,0,2.6,0.3,3.7,0.8c1.1,0.5,1.9,1.2,2.5,2.2c0.6,0.9,0.9,2,0.9,3.2
			c0,1.8-0.6,3.2-1.9,4.2c-1.3,1.1-3,1.6-5.2,1.6H38.7z M38.7,29.2h2.9c0.8,0,1.5-0.2,1.9-0.6c0.4-0.4,0.7-1,0.7-1.8
			c0-0.8-0.2-1.5-0.7-2C43,24.2,42.4,24,41.6,24h-2.9V29.2z"/>
		<path class="st2" d="M54.8,38.7h-4.4V20.6h4.4V38.7z"/>
		<path class="st2" d="M72.2,38.7h-4.3l-6.4-11.3v11.3h-4.4V20.6h4.4l6.4,11.3V20.6h4.4V38.7z"/>
		<path class="st2" d="M93.3,24h-5.4v14.7h-4.4V24h-5.3v-3.4h15.1V24z"/>
		<path class="st2" d="M109.5,38.7h-4.3v-7.6h-6.4v7.6h-4.4V20.6h4.4v7.2h6.4v-7.2h4.3V38.7z"/>
		<path class="st2" d="M122.7,31h-6.9v4.3h8.1v3.4h-12.5V20.6H124V24h-8.1v3.8h6.9V31z"/>
		<path class="st2" d="M144.6,32l2.1-11.4h4.3l-3.8,18.1h-4.5l-2.4-10.3l-2.4,10.3h-4.5l-3.9-18.1h4.3l2.1,11.4l2.5-11.4h3.7
			L144.6,32z"/>
		<path class="st2" d="M167.1,38.7h-4.3v-7.6h-6.4v7.6H152V20.6h4.4v7.2h6.4v-7.2h4.3V38.7z"/>
		<path class="st2" d="M180.3,31h-6.9v4.3h8.1v3.4h-12.5V20.6h12.5V24h-8.1v3.8h6.9V31z"/>
		<path class="st2" d="M193.8,31H187v4.3h8.1v3.4h-12.5V20.6h12.5V24H187v3.8h6.9V31z"/>
		<path class="st2" d="M200.5,35.4h7.6v3.4h-12V20.6h4.4V35.4z"/>
	</g>
</g>
</svg>
