<?xml version="1.0" encoding="utf-8"?>
<!-- Generator: Adobe Illustrator 28.0.0, SVG Export Plug-In . SVG Version: 6.00 Build 0)  -->
<svg version="1.1" id="Layer_1" xmlns="http://www.w3.org/2000/svg" xmlns:xlink="http://www.w3.org/1999/xlink" x="0px" y="0px"
	 viewBox="0 0 65 65" style="enable-background:new 0 0 65 65;" xml:space="preserve">
<style type="text/css">
	.st0{fill:url(#SVGID_1_);}
	.st1{fill:#DCDCDC;}
</style>
<g>
	
		<linearGradient id="SVGID_1_" gradientUnits="userSpaceOnUse" x1="0.62" y1="366.492" x2="64.3383" y2="366.492" gradientTransform="matrix(1 0 0 1 0 -334)">
		<stop  offset="0" style="stop-color:#969696"/>
		<stop  offset="0.24" style="stop-color:#969696"/>
		<stop  offset="0.48" style="stop-color:#646464"/>
		<stop  offset="0.72" style="stop-color:#1E1E00"/>
		<stop  offset="1" style="stop-color:#000000"/>
	</linearGradient>
	<path class="st0" d="M2.4,28.4L60.3,3.3c1.5-0.6,3.2,0,3.9,1.5c0.3,0.8,0.3,1.6,0,2.4l-10.9,24c-0.3,0.7-0.3,1.6,0,2.3l9.9,24.4
		c0.6,1.5-0.1,3.2-1.6,3.8C60.8,62,60,62,59.2,61.6l-56.9-28c-1.4-0.7-2-2.5-1.3-3.9C1.3,29.1,1.8,28.6,2.4,28.4z"/>
	<path class="st1" d="M57.4,10l-8.7,19.1l0,0l0,0c-0.8,1.9-0.8,4.2,0,6.2l7.8,19.3L8.6,31.1L57.4,10 M61.5,3.1
		c-0.4,0-0.8,0.1-1.2,0.2L2.4,28.4c-0.6,0.2-1.1,0.7-1.4,1.3c-0.7,1.4-0.1,3.2,1.3,3.9l56.9,28c0.4,0.2,0.9,0.3,1.3,0.3
		c0.4,0,0.7-0.1,1.1-0.2c1.5-0.6,2.2-2.3,1.6-3.8l-9.9-24.4c-0.3-0.7-0.3-1.6,0-2.3l10.9-24c0.3-0.8,0.3-1.6,0-2.4
		C63.7,3.7,62.6,3.1,61.5,3.1L61.5,3.1z"/>
</g>
</svg>
